<svg width="49" height="51" viewBox="0 0 49 51" fill="none" xmlns="http://www.w3.org/2000/svg">
<path d="M46.9583 9.18H38.7917V4.08C38.7917 1.82963 36.9605 0 34.7083 0H14.2917C12.0395 0 10.2083 1.82963 10.2083 4.08V9.18H2.04167C0.91237 9.18 0 10.0916 0 11.22V13.26C0 13.5405 0.229688 13.77 0.510417 13.77H4.36406L5.93997 47.1112C6.04206 49.2851 7.84128 51 10.0169 51H38.9831C41.1651 51 42.9579 49.2915 43.06 47.1112L44.6359 13.77H48.4896C48.7703 13.77 49 13.5405 49 13.26V11.22C49 10.0916 48.0876 9.18 46.9583 9.18ZM34.1979 9.18H14.8021V4.59H34.1979V9.18Z" fill="white"/>
</svg>
