<?xml version="1.0" encoding="utf-8"?>
<!-- Generator: Adobe Illustrator 25.2.3, SVG Export Plug-In . SVG Version: 6.00 Build 0)  -->
<svg version="1.1" id="Calque_1" xmlns="http://www.w3.org/2000/svg" xmlns:xlink="http://www.w3.org/1999/xlink" x="0px" y="0px"
	 viewBox="0 0 570 369" style="enable-background:new 0 0 570 369;" xml:space="preserve">
<style type="text/css">
	.st0{clip-path:url(#SVGID_2_);}
	.st1{clip-path:url(#SVGID_4_);fill:#131F6D;}
	.st2{clip-path:url(#SVGID_4_);fill:#FFCC00;}
	.st3{clip-path:url(#SVGID_4_);fill:none;stroke:#131F6D;stroke-width:2.288;stroke-miterlimit:10;}
	.st4{clip-path:url(#SVGID_4_);fill:#F0047F;}
	.st5{clip-path:url(#SVGID_2_);fill:#131F6D;}
	.st6{clip-path:url(#SVGID_6_);fill:none;stroke:#131F6D;stroke-width:1.611;}
	.st7{opacity:0.1;clip-path:url(#SVGID_6_);}
	.st8{clip-path:url(#SVGID_8_);fill:#131F6D;}
	.st9{clip-path:url(#SVGID_6_);fill:#F0047F;}
	.st10{clip-path:url(#SVGID_6_);fill:#131F6D;}
	.st11{clip-path:url(#SVGID_6_);fill:#FFCC00;}
	.st12{clip-path:url(#SVGID_6_);fill:none;stroke:#131F6D;stroke-width:0.527;stroke-miterlimit:10;}
	.st13{clip-path:url(#SVGID_10_);fill:#003078;}
	.st14{clip-path:url(#SVGID_10_);fill:#121F6E;}
	.st15{clip-path:url(#SVGID_10_);fill:#084FA3;}
	.st16{clip-path:url(#SVGID_10_);fill:#FFFFFF;}
	.st17{clip-path:url(#SVGID_10_);fill:#F7941F;}
	.st18{clip-path:url(#SVGID_10_);fill:#FFCC00;}
	.st19{opacity:0.1;clip-path:url(#SVGID_10_);}
	.st20{clip-path:url(#SVGID_12_);fill:#131F6D;}
	.st21{clip-path:url(#SVGID_10_);fill:#F0047F;}
	.st22{clip-path:url(#SVGID_10_);fill:#131F6D;}
	.st23{clip-path:url(#SVGID_10_);fill:none;stroke:#131F6D;stroke-width:0.527;stroke-miterlimit:10;}
	.st24{clip-path:url(#SVGID_14_);fill:#084FA3;}
	.st25{clip-path:url(#SVGID_14_);fill:#121F6E;}
	.st26{clip-path:url(#SVGID_14_);fill:#FBB040;}
	.st27{clip-path:url(#SVGID_2_);fill:#26ABE0;}
	.st28{clip-path:url(#SVGID_16_);fill:#FBB040;}
	.st29{clip-path:url(#SVGID_16_);fill:#FFCC00;}
	.st30{opacity:0.1;clip-path:url(#SVGID_16_);}
	.st31{clip-path:url(#SVGID_18_);fill:#131F6D;}
	.st32{clip-path:url(#SVGID_16_);fill:#F0047F;}
	.st33{clip-path:url(#SVGID_16_);fill:#131F6D;}
	.st34{clip-path:url(#SVGID_20_);fill:#131F6D;}
	.st35{clip-path:url(#SVGID_20_);fill:#FFCC00;}
	.st36{clip-path:url(#SVGID_20_);fill:none;stroke:#131F6D;stroke-width:0.527;stroke-miterlimit:10;}
	.st37{clip-path:url(#SVGID_20_);fill:#121F6E;}
	.st38{clip-path:url(#SVGID_20_);fill:#084FA3;}
	.st39{clip-path:url(#SVGID_20_);fill:#FBB040;}
	.st40{clip-path:url(#SVGID_20_);fill:#FFFFFF;}
</style>
<g>
	<defs>
		<rect id="SVGID_1_" x="5.9" y="2.8" width="560.2" height="362.8"/>
	</defs>
	<clipPath id="SVGID_2_">
		<use xlink:href="#SVGID_1_"  style="overflow:visible;"/>
	</clipPath>
	<g class="st0">
		<defs>
			<rect id="SVGID_3_" x="5.9" y="2.8" width="560.2" height="362.8"/>
		</defs>
		<clipPath id="SVGID_4_">
			<use xlink:href="#SVGID_3_"  style="overflow:visible;"/>
		</clipPath>
		<path class="st1" d="M188,265.9h4.1v-15.3h6.1v-3.4h-16.4v3.4h6.1V265.9z M169.9,262.6v-4.6h8.9v-3.2h-8.9v-4.3h10v-3.3h-14.1
			v18.7h14.5v-3.3H169.9z M158.2,265.9h4.9l-8.4-10.3l7.9-8.4H158l-8.7,8.9v-8.9h-4.1v18.7h4.1v-4.7l2.6-2.7L158.2,265.9z
			 M133.8,266.3c3.3,0,5.9-1,7.7-3.2l-2.7-2.6c-1.3,1.5-3,2.3-4.9,2.3c-3.6,0-6.2-2.5-6.2-6.2c0-3.6,2.6-6.1,6.2-6.1
			c1.9,0,3.6,0.7,4.9,2.2l2.7-2.5c-1.8-2.2-4.3-3.2-7.7-3.2c-5.9,0-10.2,4.1-10.2,9.6C123.5,262.2,127.9,266.3,133.8,266.3
			 M115.3,265.9h4.1v-18.7h-4.1V265.9z M102,265.9h4.1v-15.3h6.1v-3.4H95.9v3.4h6.1V265.9z M74.6,243.1v3.6h4.8v19.3h4.2v-22.8H74.6
			z M48.2,260.1h15v-3.3h-15V260.1z M48.2,252.2h15v-3.3h-15V252.2z"/>
		<path class="st1" d="M186.6,223.5v-4.6h8.9v-3.2h-8.9v-4.3h10v-3.3h-14.1v18.7H197v-3.3H186.6z M170.6,227.1c5,0,8-2.3,8-5.8
			c0-6.9-11-4.2-11-7.9c0-1.2,1.1-2.2,3.7-2.2c1.7,0,3.6,0.4,5.3,1.4l1.4-3.2c-1.7-1.1-4.2-1.6-6.5-1.6c-4.9,0-7.9,2.3-7.9,5.8
			c0,7.1,11.1,4.3,11.1,8c0,1.1-1,2.1-3.7,2.1c-2.4,0-4.8-0.8-6.3-1.9L163,225C164.6,226.3,167.7,227.1,170.6,227.1 M156.1,214.8
			c0,2.2-1.5,3.4-4.3,3.4h-3.7v-6.8h3.7C154.6,211.4,156.1,212.6,156.1,214.8 M160.6,226.8l-4.3-6c2.5-1,3.9-3.1,3.9-5.9
			c0-4.2-3.2-6.7-8.2-6.7H144v18.7h4.1v-5.3h3.9h0.3l3.8,5.3H160.6z M130.1,227.1c5.4,0,8.5-3.1,8.5-8.3v-10.7h-4v10.5
			c0,3.3-1.5,5-4.4,5c-2.9,0-4.4-1.7-4.4-5v-10.5h-4.1v10.7C121.6,224,124.7,227.1,130.1,227.1 M107.3,223.6c-3.5,0-6.1-2.6-6.1-6.2
			c0-3.6,2.6-6.1,6.1-6.1c3.6,0,6.1,2.6,6.1,6.1C113.5,221,110.9,223.6,107.3,223.6 M107.3,227.1c5.9,0,10.3-4.1,10.3-9.7
			s-4.4-9.6-10.3-9.6c-5.9,0-10.3,4.1-10.3,9.6S101.4,227.1,107.3,227.1 M87.7,227.1c3.3,0,5.9-1,7.7-3.2l-2.7-2.6
			c-1.3,1.5-3,2.3-4.9,2.3c-3.6,0-6.2-2.5-6.2-6.2c0-3.6,2.6-6.1,6.2-6.1c1.9,0,3.6,0.7,4.9,2.2l2.7-2.5c-1.8-2.2-4.3-3.2-7.7-3.2
			c-5.9,0-10.2,4.1-10.2,9.6C77.4,223,81.8,227.1,87.7,227.1 M55.3,223.5v-4.6h8.9v-3.2h-8.9v-4.3h10v-3.3H51.2v18.7h14.5v-3.3H55.3
			z M41.5,208.1v11.8l-9.7-11.8h-3.4v18.7h4.1V215l9.7,11.7h3.4v-18.7H41.5z M14.4,227.1c5.4,0,8.5-3.1,8.5-8.3v-10.7h-4v10.5
			c0,3.3-1.5,5-4.4,5c-2.9,0-4.4-1.7-4.4-5v-10.5H5.9v10.7C5.9,224,9,227.1,14.4,227.1"/>
		<path class="st2" d="M131.9,84c10.3,3.5,17.8,16,24.1,30.1c6.3,14.1,11.5,29.9,7.1,42.8c-4.3,13-18.2,23.2-31.7,24.7
			c-13.5,1.5-26.8-5.7-38.9-12.7c-12.1-7-23-13.7-26.9-23.3c-3.8-9.7-0.4-22.2,5.7-31.7c6.1-9.5,15.1-16,26.1-22
			C108.4,85.9,121.6,80.4,131.9,84"/>
		<path class="st3" d="M141.3,93.7l19.7,54.1 M165,115.7c-3.1-8.6,1.3-18.2,9.9-21.3L170.8,83L55.4,125l4.2,11.4
			c8.6-3.1,18.2,1.3,21.3,9.9c3.1,8.6-1.3,18.2-9.9,21.3L75,179l115.4-42l-4.2-11.4C177.6,128.8,168.1,124.3,165,115.7z"/>
		<path class="st3" d="M122.7,148.1c8.2-3,12.4-12,9.4-20.2c-3-8.2-12-12.4-20.2-9.4c-8.2,3-12.4,12-9.4,20.2
			C105.5,146.9,114.5,151.1,122.7,148.1z"/>
		<path class="st4" d="M434.7,21.2c4.3,0,7-2,7-5.1c0-4.7-7.7-3.4-7.7-5.9c0-1.2,1.3-1.9,3.4-1.9c1.5,0,3,0.3,4.2,1.1l1.3-2.6
			c-1.3-0.8-3.2-1.2-5.2-1.2c-4.3,0-6.9,2-6.9,5.1c0,4.7,7.6,3.4,7.6,5.9c0,1.2-1.3,1.8-3.2,1.8c-1.8,0-3.7-0.5-5.1-1.6l-1.3,2.7
			C429.9,20.5,432.2,21.2,434.7,21.2 M425.2,5.8l-7.6,9.5l-3.9-9.5H411l-3,15.1h3.2l1.8-9.2l3.2,7.6h1.5l6-7.6l-1.8,9.2h3.2l3-15.1
			H425.2z M397.1,18.4c-2.8,0-4.3-1.6-4.3-3.9c0-3.3,2.2-6,5.8-6c2.8,0,4.3,1.6,4.3,3.9C402.8,15.6,400.7,18.4,397.1,18.4
			 M396.8,21.2c5.6,0,9.4-3.9,9.4-9.1c0-3.9-2.8-6.5-7.4-6.5c-5.6,0-9.4,3.9-9.4,9C389.4,18.5,392.1,21.2,396.8,21.2 M378.8,20.9
			h3.3l2.5-12.4h5l0.5-2.7h-13.3l-0.5,2.7h5L378.8,20.9z M367,21.2c4.3,0,7-2,7-5.1c0-4.7-7.7-3.4-7.7-5.9c0-1.2,1.3-1.9,3.4-1.9
			c1.5,0,3,0.3,4.2,1.1l1.3-2.6c-1.3-0.8-3.2-1.2-5.2-1.2c-4.3,0-6.9,2-6.9,5.1c0,4.7,7.6,3.4,7.6,5.9c0,1.2-1.3,1.8-3.2,1.8
			c-1.8,0-3.7-0.5-5.1-1.6l-1.3,2.7C362.2,20.5,364.5,21.2,367,21.2 M351.1,21.2c4.3,0,6.8-2.3,7.7-6.7l1.7-8.6h-3.3l-1.7,8.4
			c-0.6,2.9-1.8,4.1-4.1,4.1c-2,0-3.1-1-3.1-2.8c0-0.4,0-0.8,0.1-1.3l1.7-8.4h-3.3l-1.7,8.5c-0.1,0.6-0.2,1.1-0.2,1.6
			C345,19.1,347.2,21.2,351.1,21.2 M335.3,21.2c2.6,0,4.8-0.8,6.5-2.6l-2-2c-1.2,1.2-2.6,1.8-4.1,1.8c-2.7,0-4.4-1.5-4.4-3.9
			c0-3.3,2.2-6,5.9-6c1.7,0,3,0.7,3.8,1.8l2.4-2c-1.1-1.7-3.2-2.6-5.9-2.6c-5.6,0-9.5,3.9-9.5,9C327.8,18.6,330.8,21.2,335.3,21.2
			 M311.1,21.2c4.3,0,7-2,7-5.1c0-4.7-7.7-3.4-7.7-5.9c0-1.2,1.3-1.9,3.4-1.9c1.5,0,3,0.3,4.2,1.1l1.3-2.6C318,6,316,5.6,314,5.6
			c-4.3,0-6.9,2-6.9,5.1c0,4.7,7.6,3.4,7.6,5.9c0,1.2-1.3,1.8-3.2,1.8c-1.8,0-3.7-0.5-5.1-1.6l-1.3,2.7
			C306.2,20.5,308.6,21.2,311.1,21.2 M304.8,8.5l0.5-2.7h-11.4l-3,15.1h11.7l0.5-2.7h-8.4l0.7-3.7h7.2l0.5-2.6H296l0.7-3.5H304.8z
			 M277.3,20.9h11.1l0.5-2.7h-7.7l2.5-12.4h-3.3L277.3,20.9z"/>
	</g>
	<polygon class="st5" points="264.8,11.9 257.4,11.9 257.4,4.6 253,4.6 253,11.9 245.6,11.9 245.6,16 253,16 253,23.3 257.4,23.3 
		257.4,16 264.8,16 	"/>
	<g class="st0">
		<defs>
			<rect id="SVGID_5_" x="5.9" y="2.8" width="560.2" height="362.8"/>
		</defs>
		<clipPath id="SVGID_6_">
			<use xlink:href="#SVGID_5_"  style="overflow:visible;"/>
		</clipPath>
		<line class="st6" x1="230.9" y1="2.8" x2="230.9" y2="354.5"/>
		<g class="st7">
			<g>
				<defs>
					<rect id="SVGID_7_" x="356.4" y="91.3" width="126.9" height="116.3"/>
				</defs>
				<clipPath id="SVGID_8_">
					<use xlink:href="#SVGID_7_"  style="overflow:visible;"/>
				</clipPath>
				<path class="st8" d="M416.6,98.4c15.1-0.1,26.7,5.1,37.1,13.4c5.7,4.6,10.9,9.6,14.7,15.9c3.3,5.4,5.3,11.3,5.8,17.7
					c0.8,9.3-1.5,18-5.3,26.3c-4.2,9.1-9.4,17.5-16.9,24.4c-7.3,6.7-15.8,10.4-25.8,10.7c-8.9,0.2-17.2-2.1-25.3-5.7
					c-6.9-3-13.3-6.7-19-11.6c-9.4-8-15.2-18-16.2-30.5c-1-13.7,1.8-26.6,8.9-38.4c5.2-8.6,12.7-14.4,21.9-18.1
					C403.4,99.8,410.6,98.2,416.6,98.4"/>
			</g>
		</g>
		<path class="st9" d="M453.2,139.8v-2.5h5v-1.9h-5V133h5.7v-2h-8.2v10.8h8.4v-2H453.2z M444.6,142c1.9,0,3.4-0.7,4.5-1.9l-1.6-1.5
			c-0.7,0.8-1.6,1.3-2.7,1.3c-2,0-3.5-1.4-3.5-3.5c0-2,1.4-3.5,3.5-3.5c1.1,0,2,0.4,2.7,1.3l1.6-1.5c-1-1.2-2.6-1.9-4.4-1.9
			c-3.4,0-5.9,2.3-5.9,5.6C438.7,139.7,441.2,142,444.6,142 M434.4,131v6.6L429,131H427v10.8h2.5v-6.6l5.4,6.6h2.1V131H434.4z
			 M419.1,139.8v-2.5h5v-1.9h-5V133h5.7v-2h-8.2v10.8h8.4v-2H419.1z M412.1,139.4c-0.6,0.3-1.3,0.5-1.9,0.5c-2.1,0-3.5-1.4-3.5-3.5
			c0-2.1,1.4-3.5,3.5-3.5c1.1,0,2,0.4,2.8,1.2l1.6-1.5c-1-1.2-2.6-1.9-4.5-1.9c-3.4,0-5.9,2.3-5.9,5.6c0,3.3,2.5,5.6,5.9,5.6
			c1.5,0,3.2-0.5,4.4-1.4v-4.4h-2.3V139.4z M400.3,135c0,1.2-0.8,1.9-2.3,1.9h-2v-3.8h2C399.5,133.1,400.3,133.8,400.3,135
			 M403,141.8l-2.4-3.5c1.4-0.6,2.2-1.8,2.2-3.4c0-2.4-1.8-3.9-4.7-3.9h-4.7v10.8h2.5v-3h2.2h0.1l2.1,3H403z M386.1,142
			c3.1,0,4.9-1.8,4.9-4.9V131h-2.5v6c0,2.1-0.9,2.9-2.4,2.9c-1.5,0-2.4-0.8-2.4-2.9v-6h-2.5v6.1C381.2,140.3,383,142,386.1,142"/>
		<path class="st10" d="M384.1,157.9c-1.1,0-2.1,0.4-2.7,1v-4.2h-1.9v11.4h1.9v-4.2c0-1.7,0.9-2.5,2.3-2.5c1.2,0,2,0.7,2,2.2v4.5
			h1.9v-4.7C387.5,159,386,157.9,384.1,157.9 M372.5,164.5l2.9-2.7c1.5-1.4,1.8-2.4,1.8-3.4c0-1.9-1.5-3.1-3.9-3.1
			c-1.8,0-3.3,0.7-4.1,1.8l1.4,1.1c0.6-0.8,1.5-1.1,2.5-1.1c1.3,0,2,0.6,2,1.6c0,0.6-0.2,1.2-1.2,2.2l-4.3,4.1v1.3h8v-1.7H372.5z
			 M364.3,162.7h4.2v-1.6h-4.2V162.7z"/>
		<path class="st10" d="M467.5,157.9c-1.2,0-2.2,0.4-2.8,1.2V158h-1.8v8.2h1.9v-4.2c0-1.7,0.9-2.5,2.3-2.5c1.2,0,2,0.7,2,2.2v4.5
			h1.9v-4.7C470.9,159,469.5,157.9,467.5,157.9 M458.4,166.2h1.9V158h-1.9V166.2z M459.3,156.6c0.7,0,1.2-0.5,1.2-1.2
			c0-0.6-0.5-1.1-1.2-1.1c-0.7,0-1.2,0.5-1.2,1.2C458.1,156.1,458.6,156.6,459.3,156.6 M452.5,157.9c-1.3,0-2.4,0.5-3.1,1.4
			c-0.6-0.9-1.6-1.4-2.8-1.4c-1.1,0-2.1,0.4-2.7,1.1v-1h-1.8v8.2h1.9v-4.2c0-1.6,0.9-2.5,2.1-2.5c1.2,0,1.9,0.7,1.9,2.2v4.5h1.9
			v-4.2c0-1.6,0.9-2.5,2.1-2.5c1.2,0,1.9,0.7,1.9,2.2v4.5h1.9v-4.7C455.9,159,454.5,157.9,452.5,157.9 M435.9,159.6h-1l0.2-2.5h4.6
			v-1.7h-6.3l-0.6,5.9h2.6c2.2,0,2.9,0.6,2.9,1.7c0,1-0.8,1.7-2.3,1.7c-1.2,0-2.4-0.4-3.2-1.1l-0.8,1.6c1,0.8,2.5,1.2,4.1,1.2
			c2.9,0,4.3-1.6,4.3-3.5C440.4,161,439.1,159.6,435.9,159.6 M431.7,162.1h-1.9v-2.2h-1.9v2.2h-3.5l5-6.7h-2.1l-5.3,7v1.4h5.9v2.5
			h1.9v-2.5h1.9V162.1z M416.2,162.7h4.2v-1.6h-4.2V162.7z"/>
		<path class="st11" d="M378.1,173.9c2.4,0.8,4.1,3.7,5.5,6.9c1.4,3.3,2.6,6.9,1.6,9.9c-1,3-4.2,5.3-7.3,5.7c-3.1,0.3-6.2-1.3-9-2.9
			c-2.8-1.6-5.3-3.2-6.2-5.4c-0.9-2.2-0.1-5.1,1.3-7.3c1.4-2.2,3.5-3.7,6-5.1C372.7,174.4,375.8,173.1,378.1,173.9"/>
		<path class="st12" d="M380.3,176.1l4.5,12.5 M385.7,181.2c-0.7-2,0.3-4.2,2.3-4.9l-1-2.6l-26.6,9.7l1,2.6c2-0.7,4.2,0.3,4.9,2.3
			c0.7,2-0.3,4.2-2.3,4.9l1,2.6l26.6-9.7l-1-2.6C388.7,184.2,386.5,183.2,385.7,181.2z"/>
		<path class="st12" d="M376,188.7c1.9-0.7,2.8-2.8,2.2-4.6c-0.7-1.9-2.8-2.9-4.6-2.2c-1.9,0.7-2.9,2.8-2.2,4.6
			C372,188.4,374.1,189.4,376,188.7z"/>
		<path class="st11" d="M435,173.9c2.4,0.8,4.1,3.7,5.5,6.9c1.4,3.3,2.6,6.9,1.6,9.9c-1,3-4.2,5.3-7.3,5.7c-3.1,0.3-6.2-1.3-9-2.9
			c-2.8-1.6-5.3-3.2-6.2-5.4c-0.9-2.2-0.1-5.1,1.3-7.3c1.4-2.2,3.5-3.7,6-5.1C429.6,174.4,432.6,173.1,435,173.9"/>
		<path class="st12" d="M437.1,176.1l4.5,12.5 M442.6,181.2c-0.7-2,0.3-4.2,2.3-4.9l-1-2.6l-26.6,9.7l1,2.6c2-0.7,4.2,0.3,4.9,2.3
			c0.7,2-0.3,4.2-2.3,4.9l1,2.6l26.6-9.7l-1-2.6C445.5,184.2,443.3,183.2,442.6,181.2z"/>
		<path class="st12" d="M432.9,188.7c1.9-0.7,2.8-2.8,2.2-4.6c-0.7-1.9-2.8-2.9-4.6-2.2c-1.9,0.7-2.9,2.8-2.2,4.6
			C428.9,188.4,431,189.4,432.9,188.7z"/>
		<path class="st11" d="M471.8,173.9c2.4,0.8,4.1,3.7,5.5,6.9c1.4,3.3,2.6,6.9,1.6,9.9c-1,3-4.2,5.3-7.3,5.7c-3.1,0.3-6.2-1.3-9-2.9
			c-2.8-1.6-5.3-3.2-6.2-5.4c-0.9-2.2-0.1-5.1,1.3-7.3c1.4-2.2,3.5-3.7,6-5.1C466.4,174.4,469.4,173.1,471.8,173.9"/>
		<path class="st12" d="M474,176.1l4.5,12.5 M479.4,181.2c-0.7-2,0.3-4.2,2.3-4.9l-1-2.6l-26.6,9.7l1,2.6c2-0.7,4.2,0.3,4.9,2.3
			c0.7,2-0.3,4.2-2.3,4.9l1,2.6l26.6-9.7l-1-2.6C482.3,184.2,480.1,183.2,479.4,181.2z"/>
		<path class="st12" d="M469.7,188.7c1.9-0.7,2.8-2.8,2.2-4.6c-0.7-1.9-2.8-2.9-4.6-2.2c-1.9,0.7-2.9,2.8-2.2,4.6
			C465.7,188.4,467.8,189.4,469.7,188.7z"/>
	</g>
	<polygon class="st5" points="355.5,186.5 352.6,186.5 352.6,183.6 350.8,183.6 350.8,186.5 347.8,186.5 347.8,188.2 350.8,188.2 
		350.8,191.1 352.6,191.1 352.6,188.2 355.5,188.2 	"/>
	<polygon class="st5" points="413,186.5 410,186.5 410,183.6 408.2,183.6 408.2,186.5 405.3,186.5 405.3,188.2 408.2,188.2 
		408.2,191.1 410,191.1 410,188.2 413,188.2 	"/>
	<g class="st0">
		<defs>
			<rect id="SVGID_9_" x="5.9" y="2.8" width="560.2" height="362.8"/>
		</defs>
		<clipPath id="SVGID_10_">
			<use xlink:href="#SVGID_9_"  style="overflow:visible;"/>
		</clipPath>
		<path class="st13" d="M420.6,62c-0.3,0-0.5,0-0.8-0.1v3.2c0,0.4,0.4,0.8,0.8,0.8c0.4,0,0.8-0.4,0.8-0.8v-3.2
			C421.1,62,420.8,62,420.6,62"/>
		<path class="st14" d="M420.6,54.6c-1.8,0-3.3,1.5-3.3,3.3s1.5,3.3,3.3,3.3c1.8,0,3.3-1.5,3.3-3.3S422.4,54.6,420.6,54.6
			 M420.6,62.8c-2.7,0-4.9-2.2-4.9-4.9c0-2.7,2.2-4.9,4.9-4.9c2.7,0,4.9,2.2,4.9,4.9C425.5,60.6,423.3,62.8,420.6,62.8"/>
		<path class="st14" d="M410.6,69.5l-3.1-4.2c-0.3-0.4-0.8-0.4-1.1-0.2l-3.6,2.7c-0.2,0.1-0.3,0.3-0.3,0.5c0,0.2,0,0.4,0.1,0.6
			l3.1,4.2c0.2,0.2,0.4,0.3,0.6,0.3c0.2,0,0.3-0.1,0.5-0.2l3.6-2.7c0.2-0.1,0.3-0.3,0.3-0.5C410.8,69.8,410.7,69.6,410.6,69.5"/>
		<path class="st14" d="M438.4,67.8l-3.6-2.7c-0.2-0.1-0.4-0.2-0.6-0.1c-0.2,0-0.4,0.1-0.5,0.3l-3.1,4.2c-0.3,0.4-0.2,0.8,0.2,1.1
			l3.6,2.7c0.1,0.1,0.3,0.2,0.5,0.2c0,0,0.1,0,0.1,0c0.2,0,0.4-0.1,0.5-0.3l3.1-4.2C438.9,68.6,438.8,68.1,438.4,67.8"/>
		<path class="st15" d="M437.8,71.8c-4.6-4.6-10.8-7.2-17.3-7.2s-12.7,2.5-17.3,7.2c-4.6,4.6-7.2,10.8-7.2,17.3s2.5,12.7,7.2,17.3
			c4.6,4.6,10.7,7.2,17.3,7.2s12.7-2.5,17.3-7.2c4.6-4.6,7.2-10.7,7.2-17.3S442.5,76.4,437.8,71.8"/>
		<path class="st16" d="M438.4,89.1c0,9.8-8,17.8-17.8,17.8c-9.8,0-17.8-8-17.8-17.8c0-9.8,8-17.8,17.8-17.8
			C430.4,71.3,438.4,79.2,438.4,89.1"/>
		<path class="st14" d="M420.6,72c-9.4,0-17,7.6-17,17c0,9.4,7.6,17,17,17c9.4,0,17-7.6,17-17C437.6,79.7,429.9,72,420.6,72
			 M420.6,107.7c-10.3,0-18.6-8.3-18.6-18.6s8.3-18.6,18.6-18.6c10.3,0,18.6,8.3,18.6,18.6S430.8,107.7,420.6,107.7"/>
		<path class="st14" d="M420.6,70.5c-0.4,0-0.8,0.4-0.8,0.8V76c0,0.4,0.4,0.8,0.8,0.8c0.4,0,0.8-0.4,0.8-0.8v-4.8
			C421.4,70.8,421,70.5,420.6,70.5"/>
		<path class="st13" d="M420.6,101.3c-0.4,0-0.8,0.4-0.8,0.8v4.8c0,0.4,0.4,0.8,0.8,0.8c0.4,0,0.8-0.4,0.8-0.8v-4.8
			C421.4,101.7,421,101.3,420.6,101.3"/>
		<path class="st14" d="M438.4,88.3h-4.8c-0.4,0-0.8,0.4-0.8,0.8c0,0.4,0.4,0.8,0.8,0.8h4.8c0.4,0,0.8-0.4,0.8-0.8
			C439.2,88.6,438.8,88.3,438.4,88.3"/>
		<path class="st14" d="M407.5,88.3h-4.8c-0.4,0-0.8,0.4-0.8,0.8c0,0.4,0.4,0.8,0.8,0.8h4.8c0.4,0,0.8-0.4,0.8-0.8
			C408.3,88.6,408,88.3,407.5,88.3"/>
		<path class="st17" d="M431.3,77.5c-0.2-0.2-0.5-0.2-0.8-0.2c-6.7,2.2-10.6,11-10.7,11.4c-0.1,0.3-0.1,0.7,0.2,0.9
			c0.1,0.1,0.3,0.2,0.5,0.2c0.1,0,0.3,0,0.4-0.1c0.1-0.1,2.3-1.3,4.8-3.3c3.3-2.7,5.3-5.5,5.9-8.2C431.6,78,431.5,77.7,431.3,77.5"
			/>
		<path class="st18" d="M387.6,87.1h-3.8c-0.6,0-1.1,0.5-1.1,1.1c0,0.6,0.5,1.1,1.1,1.1h3.8c0.6,0,1.1-0.5,1.1-1.1
			C388.8,87.6,388.3,87.1,387.6,87.1"/>
		<path class="st18" d="M458.9,87.1h-3.8c-0.6,0-1.1,0.5-1.1,1.1c0,0.6,0.5,1.1,1.1,1.1h3.8c0.6,0,1.1-0.5,1.1-1.1
			C460,87.6,459.5,87.1,458.9,87.1"/>
		<path class="st18" d="M421.4,120.9c-0.6,0-1.1,0.5-1.1,1.1v3.8c0,0.6,0.5,1.1,1.1,1.1c0.6,0,1.1-0.5,1.1-1.1V122
			C422.5,121.4,422,120.9,421.4,120.9"/>
		<path class="st18" d="M395.6,60.9c-0.4-0.4-1.1-0.4-1.6,0c-0.4,0.4-0.4,1.1,0,1.6l2.7,2.7c0.2,0.2,0.5,0.3,0.8,0.3
			c0.3,0,0.6-0.1,0.8-0.3c0.4-0.4,0.4-1.1,0-1.6L395.6,60.9z"/>
		<path class="st18" d="M446,111.3c-0.4-0.4-1.1-0.4-1.6,0c-0.4,0.4-0.4,1.1,0,1.6l2.7,2.7c0.2,0.2,0.5,0.3,0.8,0.3
			c0.3,0,0.6-0.1,0.8-0.3c0.4-0.4,0.4-1.1,0-1.6L446,111.3z"/>
		<path class="st18" d="M447.1,60.9l-2.7,2.7c-0.4,0.4-0.4,1.1,0,1.6c0.2,0.2,0.5,0.3,0.8,0.3c0.3,0,0.6-0.1,0.8-0.3l2.7-2.7
			c0.4-0.4,0.4-1.1,0-1.6C448.2,60.5,447.5,60.5,447.1,60.9"/>
		<path class="st18" d="M396.7,111.3L394,114c-0.4,0.4-0.4,1.1,0,1.6c0.2,0.2,0.5,0.3,0.8,0.3c0.3,0,0.6-0.1,0.8-0.3l2.7-2.7
			c0.4-0.4,0.4-1.1,0-1.6C397.9,110.9,397.2,110.9,396.7,111.3"/>
		<g class="st19">
			<g>
				<defs>
					<rect id="SVGID_11_" x="448.1" y="246.7" width="126.9" height="116.3"/>
				</defs>
				<clipPath id="SVGID_12_">
					<use xlink:href="#SVGID_11_"  style="overflow:visible;"/>
				</clipPath>
				<path class="st20" d="M508.3,253.7c15.1-0.1,26.7,5.1,37.1,13.4c5.7,4.6,10.9,9.6,14.7,15.9c3.3,5.4,5.3,11.3,5.8,17.7
					c0.8,9.3-1.5,18-5.3,26.3c-4.2,9.1-9.4,17.5-16.9,24.4c-7.3,6.7-15.8,10.4-25.8,10.7c-8.9,0.2-17.2-2.1-25.3-5.7
					c-6.9-3-13.3-6.7-19-11.6c-9.4-8-15.2-18-16.2-30.5c-1-13.7,1.8-26.6,8.9-38.4c5.2-8.6,12.7-14.4,21.9-18.1
					C495,255.2,502.2,253.5,508.3,253.7"/>
			</g>
		</g>
		<path class="st21" d="M531,292.5c3.1,0,4.6-1.5,4.6-3.3c0-4-6.3-2.6-6.3-4.6c0-0.7,0.6-1.2,2.1-1.2c1,0,2,0.3,3,0.9l0.8-1.9
			c-1-0.6-2.4-1-3.8-1c-3.1,0-4.6,1.5-4.6,3.4c0,4,6.3,2.6,6.3,4.6c0,0.7-0.6,1.2-2.1,1.2c-1.3,0-2.7-0.5-3.6-1.1l-0.8,1.9
			C527.5,292,529.2,292.5,531,292.5 M522.3,292.3h2.5v-10.8h-2.5V292.3z M513,292.3h7.9v-2h-5.4v-8.8H513V292.3z M505.2,290.4
			c-1.9,0-3.4-1.4-3.4-3.5c0-2.1,1.5-3.5,3.4-3.5s3.4,1.4,3.4,3.5C508.6,289,507.2,290.4,505.2,290.4 M505.2,292.5
			c3.4,0,5.9-2.4,5.9-5.6c0-3.2-2.5-5.6-5.9-5.6c-3.4,0-5.9,2.4-5.9,5.6S501.8,292.5,505.2,292.5 M494.1,292.5
			c1.9,0,3.4-0.7,4.5-1.9l-1.6-1.5c-0.7,0.8-1.6,1.3-2.7,1.3c-2,0-3.5-1.4-3.5-3.5s1.4-3.5,3.5-3.5c1.1,0,2,0.4,2.7,1.3l1.6-1.5
			c-1-1.2-2.6-1.9-4.4-1.9c-3.4,0-5.9,2.3-5.9,5.6C488.2,290.2,490.7,292.5,494.1,292.5"/>
		<path class="st22" d="M536.5,319.9h0.3c1-1.3,1.7-3.4,1.7-5.3c0-0.6-0.1-1.4-0.3-2H538c0.2,0.7,0.3,1.3,0.3,1.9
			C538.3,316.5,537.6,318.6,536.5,319.9 M534.3,314.4c-0.8,0-1.4,0.3-1.8,1c-0.1-0.6-0.6-1-1.3-1c-0.7,0-1.3,0.3-1.7,0.9l0.2-0.9
			h-0.3l-0.8,4h0.3l0.4-2.2c0.2-1,0.9-1.6,1.8-1.6c0.8,0,1.2,0.4,1.2,1c0,0.1,0,0.3,0,0.4l-0.5,2.3h0.3l0.5-2.3
			c0.2-1,0.9-1.5,1.8-1.5c0.8,0,1.2,0.4,1.2,1c0,0.1,0,0.3,0,0.4l-0.5,2.3h0.3l0.5-2.3c0-0.2,0-0.3,0-0.4
			C535.7,314.9,535.2,314.4,534.3,314.4 M526,318.4c0.6,0,1.2-0.2,1.6-0.7l-0.2-0.2c-0.3,0.4-0.8,0.6-1.4,0.6c-1,0-1.5-0.5-1.5-1.4
			c0-1.2,0.8-2.2,2-2.2c0.6,0,1,0.2,1.3,0.6l0.2-0.1c-0.3-0.5-0.8-0.7-1.5-0.7c-1.3,0-2.3,1-2.3,2.4
			C524.3,317.8,524.9,318.4,526,318.4 M523.9,313.2l0-0.2h-2.8l-0.8,2.5h1.2c1.2,0,1.7,0.4,1.7,1.1c0,0.9-0.7,1.5-1.8,1.5
			c-0.8,0-1.4-0.3-1.6-0.7l-0.2,0.2c0.3,0.4,0.9,0.7,1.8,0.7c1.3,0,2.1-0.7,2.1-1.7c0-0.9-0.6-1.4-1.9-1.4h-0.9l0.7-2.1H523.9z
			 M517.7,313l-0.1,0.2h1.4l-1,5.2h0.2l1.1-5.4H517.7z M517,314.4h-0.3l-1.7,1.8l-1-1.8h-0.3l1.1,1.9l-2,2.1h0.3l1.8-1.9l1.1,1.9
			h0.3l-1.2-2.1L517,314.4z M510.9,315.9c-0.9,0-1.5-0.5-1.5-1.3c0-0.9,0.6-1.5,1.6-1.5c1,0,1.5,0.7,1.5,1.3
			C512.6,315.3,511.9,315.9,510.9,315.9 M511,313c-1.1,0-1.9,0.6-1.9,1.7c0,0.9,0.7,1.5,1.7,1.5c0.7,0,1.5-0.3,1.8-1.1v0
			c0,1.4-0.7,3.1-2.6,3.1c-0.4,0-0.8-0.1-1.1-0.3l-0.1,0.2c0.3,0.2,0.7,0.3,1.2,0.3c2.1,0,2.9-1.9,2.9-3.4
			C512.9,313.7,512.1,313,511,313 M508.6,313h-3.3l0,0.2h3l-2.1,2.2l0,0.2h0.3c1,0,1.5,0.4,1.5,1.1c0,0.9-0.7,1.5-1.8,1.5
			c-0.8,0-1.4-0.3-1.6-0.7l-0.2,0.2c0.3,0.4,0.9,0.7,1.8,0.7c1.3,0,2.1-0.7,2.1-1.7c0-0.8-0.5-1.3-1.6-1.3l2.1-2.2L508.6,313z
			 M504.4,314.4H504l-1.7,1.8l-1-1.8H501l1.1,1.9l-2,2.1h0.3l1.8-1.9l1.1,1.9h0.3l-1.2-2.1L504.4,314.4z M497.6,318.2
			c-0.9,0-1.4-0.6-1.4-1.7c0-1.6,0.9-3.3,2.4-3.3c0.9,0,1.4,0.6,1.4,1.7C500,316.5,499.1,318.2,497.6,318.2 M497.5,318.4
			c1.7,0,2.7-1.8,2.7-3.6c0-1.2-0.6-1.9-1.7-1.9c-1.7,0-2.7,1.8-2.7,3.6C495.9,317.7,496.5,318.4,497.5,318.4 M495.4,313.2l0-0.2
			h-2.8l-0.8,2.5h1.1c1.2,0,1.7,0.4,1.7,1.1c0,0.9-0.7,1.5-1.8,1.5c-0.8,0-1.4-0.3-1.6-0.7l-0.2,0.2c0.3,0.4,0.9,0.7,1.8,0.7
			c1.3,0,2.1-0.7,2.1-1.7c0-0.9-0.6-1.4-1.9-1.4h-0.9l0.7-2.1H495.4z M487.8,314.3l0,0.2l2.7,1.2l-3.2,1.2l-0.1,0.3l3.5-1.3l0-0.2
			L487.8,314.3z M485.4,319.9h0.2c-0.2-0.7-0.3-1.3-0.3-1.9c0-1.9,0.7-4,1.8-5.3h-0.3c-1,1.3-1.7,3.4-1.7,5.3
			C485.1,318.6,485.2,319.3,485.4,319.9"/>
		<path class="st22" d="M559.7,309.2c1.5,0,2.5-0.7,2.5-1.7c0-2.1-3.3-1.1-3.3-2.2c0-0.4,0.4-0.6,1.1-0.6c0.5,0,1,0.1,1.5,0.4l0.5-1
			c-0.5-0.3-1.3-0.5-2-0.5c-1.5,0-2.4,0.7-2.4,1.7c0,2.2,3.3,1.2,3.3,2.2c0,0.4-0.3,0.6-1.1,0.6c-0.7,0-1.4-0.2-1.9-0.5l-0.5,1
			C557.9,309,558.8,309.2,559.7,309.2 M555.1,309.2h1.3v-5.4h-1.3V309.2z M555.7,302.9c0.5,0,0.8-0.3,0.8-0.8c0-0.4-0.3-0.7-0.8-0.7
			c-0.5,0-0.8,0.3-0.8,0.8C554.9,302.5,555.2,302.9,555.7,302.9 M552.1,309.2h1.3v-7.5h-1.3V309.2z M548,308.1
			c-0.9,0-1.6-0.7-1.6-1.7c0-1,0.7-1.7,1.6-1.7c0.9,0,1.6,0.7,1.6,1.7C549.7,307.5,549,308.1,548,308.1 M548,309.2
			c1.7,0,2.9-1.2,2.9-2.8s-1.2-2.8-2.9-2.8c-1.7,0-2.9,1.1-2.9,2.8S546.4,309.2,548,309.2 M542.3,309.2c1.1,0,1.9-0.5,2.3-1.3
			l-1-0.6c-0.3,0.5-0.8,0.8-1.3,0.8c-0.9,0-1.6-0.6-1.6-1.7c0-1,0.7-1.7,1.6-1.7c0.5,0,1,0.2,1.3,0.8l1-0.6
			c-0.4-0.8-1.3-1.3-2.3-1.3c-1.7,0-2.9,1.1-2.9,2.8S540.6,309.2,542.3,309.2 M532.5,308.1c-0.9,0-1.6-0.7-1.6-1.7
			c0-1,0.7-1.7,1.6-1.7c0.9,0,1.6,0.7,1.6,1.7C534.1,307.5,533.4,308.1,532.5,308.1 M534.1,301.6v2.8c-0.4-0.5-1-0.7-1.7-0.7
			c-1.6,0-2.7,1.1-2.7,2.8c0,1.7,1.2,2.8,2.7,2.8c0.7,0,1.4-0.3,1.8-0.8v0.7h1.2v-7.5H534.1z M526.1,303.7c-0.8,0-1.4,0.3-1.9,0.8
			v-0.7h-1.2v5.4h1.3v-2.7c0-1.1,0.6-1.6,1.5-1.6c0.8,0,1.3,0.5,1.3,1.4v2.9h1.3v-3.1C528.4,304.4,527.4,303.7,526.1,303.7
			 M518.8,308.3c-0.6,0-1-0.3-1-0.8c0-0.4,0.2-0.7,1.1-0.7h1.3v0.6C520,308,519.4,308.3,518.8,308.3 M519,303.7
			c-0.9,0-1.7,0.2-2.3,0.7l0.5,0.9c0.4-0.3,1-0.5,1.6-0.5c0.9,0,1.3,0.4,1.3,1.2v0.1h-1.4c-1.6,0-2.2,0.7-2.2,1.6
			c0,0.9,0.8,1.6,2,1.6c0.8,0,1.4-0.3,1.7-0.7v0.7h1.2V306C521.5,304.4,520.6,303.7,519,303.7 M514,304.5v-0.8h-1.2v5.4h1.3v-2.6
			c0-1.1,0.6-1.7,1.6-1.7c0.1,0,0.2,0,0.3,0v-1.2C515,303.7,514.3,304,514,304.5 M508.2,307.8c-1,0-1.7-0.6-1.7-1.5
			c0-0.9,0.7-1.5,1.7-1.5c1,0,1.6,0.6,1.6,1.5C509.8,307.2,509.2,307.8,508.2,307.8 M509.9,303.7v0.7c-0.4-0.5-1.1-0.8-1.9-0.8
			c-1.6,0-2.7,1-2.7,2.6s1.2,2.6,2.7,2.6c0.7,0,1.4-0.2,1.8-0.7v0.3c0,1.1-0.5,1.6-1.7,1.6c-0.7,0-1.5-0.3-2-0.6l-0.6,1
			c0.6,0.5,1.6,0.8,2.6,0.8c1.9,0,2.9-0.9,2.9-2.9v-4.6H509.9z M500,303.7v2.7c0,1.1-0.6,1.6-1.5,1.6c-0.8,0-1.3-0.5-1.3-1.4v-2.9
			H496v3.1c0,1.6,0.9,2.4,2.3,2.4c0.7,0,1.3-0.3,1.7-0.8v0.7h1.2v-5.4H500z M491.9,308.1c-0.9,0-1.6-0.7-1.6-1.7
			c0-1,0.7-1.7,1.6-1.7c0.9,0,1.6,0.7,1.6,1.7C493.5,307.5,492.9,308.1,491.9,308.1 M491.9,309.2c1.7,0,2.9-1.2,2.9-2.8
			s-1.2-2.8-2.9-2.8c-1.7,0-2.9,1.1-2.9,2.8S490.3,309.2,491.9,309.2 M482.2,307.8c-1,0-1.7-0.6-1.7-1.5c0-0.9,0.7-1.5,1.7-1.5
			c1,0,1.6,0.6,1.6,1.5C483.8,307.2,483.1,307.8,482.2,307.8 M483.8,303.7v0.7c-0.4-0.5-1.1-0.8-1.9-0.8c-1.5,0-2.7,1-2.7,2.6
			s1.2,2.6,2.7,2.6c0.7,0,1.4-0.2,1.8-0.7v0.3c0,1.1-0.5,1.6-1.7,1.6c-0.8,0-1.5-0.3-2-0.6l-0.6,1c0.6,0.5,1.6,0.8,2.6,0.8
			c1.9,0,2.9-0.9,2.9-2.9v-4.6H483.8z M477.5,309.2h1.5l-2.5-3.1l2.3-2.3h-1.5l-2.6,2.4v-4.5h-1.3v7.5h1.3v-1.4l0.9-0.9L477.5,309.2
			z M469.4,304.8h-0.7l0.2-1.6h3v-1.1h-4.2l-0.4,3.9h1.7c1.5,0,1.9,0.4,1.9,1.1c0,0.7-0.6,1.1-1.5,1.1c-0.8,0-1.6-0.3-2.1-0.7
			l-0.6,1c0.6,0.5,1.7,0.8,2.7,0.8c1.9,0,2.8-1,2.8-2.3C472.3,305.7,471.5,304.8,469.4,304.8 M466.1,305.1h-1.8v-1.8h-1.1v1.8h-1.8
			v1h1.8v1.8h1.1v-1.8h1.8V305.1z"/>
		<path class="st18" d="M513.6,331.5c2.4,0.8,4.1,3.7,5.5,6.9c1.4,3.3,2.6,6.9,1.6,9.9c-1,3-4.2,5.3-7.3,5.7c-3.1,0.3-6.2-1.3-9-2.9
			c-2.8-1.6-5.3-3.2-6.2-5.4c-0.9-2.2-0.1-5.1,1.3-7.3c1.4-2.2,3.5-3.7,6-5.1C508.2,331.9,511.3,330.7,513.6,331.5"/>
		<path class="st23" d="M515.8,333.7l4.5,12.5 M521.3,338.8c-0.7-2,0.3-4.2,2.3-4.9l-1-2.6l-26.6,9.7l1,2.6c2-0.7,4.2,0.3,4.9,2.3
			c0.7,2-0.3,4.2-2.3,4.9l1,2.6l26.6-9.7l-1-2.6C524.2,341.8,522,340.8,521.3,338.8z"/>
		<path class="st23" d="M511.5,346.3c1.9-0.7,2.8-2.8,2.2-4.6c-0.7-1.9-2.8-2.8-4.6-2.2c-1.9,0.7-2.9,2.8-2.2,4.6
			C507.6,346,509.6,346.9,511.5,346.3z"/>
	</g>
	<polygon class="st5" points="493.4,343.8 490.4,343.8 490.4,340.9 488.6,340.9 488.6,343.8 485.7,343.8 485.7,345.5 488.6,345.5 
		488.6,348.4 490.4,348.4 490.4,345.5 493.4,345.5 	"/>
	<g class="st0">
		<defs>
			<rect id="SVGID_13_" x="5.9" y="2.8" width="560.2" height="362.8"/>
		</defs>
		<clipPath id="SVGID_14_">
			<use xlink:href="#SVGID_13_"  style="overflow:visible;"/>
		</clipPath>
		<path class="st24" d="M538.4,223.2l-26.8-9.6c-0.2-0.1-0.4-0.1-0.5,0l-26.8,9.6c-0.3,0.1-0.5,0.4-0.5,0.7c0,0.3,0.2,0.6,0.5,0.7
			l26.8,9.6c0.1,0,0.2,0,0.3,0c0.1,0,0.2,0,0.3,0l26.8-9.6c0.3-0.1,0.5-0.4,0.5-0.7C538.9,223.6,538.7,223.3,538.4,223.2"/>
		<path class="st24" d="M511.5,232.9l-26.8-9.6c-0.2-0.1-0.5-0.1-0.7,0.1c-0.2,0.1-0.3,0.4-0.3,0.6v34.4c0,0.3,0.2,0.6,0.5,0.7
			l26.8,11.4c0.1,0,0.2,0.1,0.3,0.1c0.2,0,0.3,0,0.4-0.1c0.2-0.1,0.4-0.4,0.4-0.7v-36.1C512.1,233.3,511.9,233,511.5,232.9"/>
		<path class="st25" d="M538.5,223.3c-0.2-0.1-0.5-0.2-0.7-0.1l-26.8,9.6c-0.3,0.1-0.5,0.4-0.5,0.7v36.1c0,0.3,0.1,0.5,0.4,0.7
			c0.1,0.1,0.3,0.1,0.4,0.1c0.1,0,0.2,0,0.3-0.1l26.8-12c0.3-0.1,0.5-0.4,0.5-0.7V224C538.9,223.7,538.8,223.5,538.5,223.3"/>
		<path class="st26" d="M519.3,216.3L492.9,227v13.2c0,0.4,0.2,0.7,0.6,0.8l7.4,2.8c0.1,0,0.2,0.1,0.3,0.1c0.2,0,0.4-0.1,0.5-0.2
			c0.2-0.2,0.4-0.4,0.4-0.7v-12.6l27.6-10.3L519.3,216.3z"/>
	</g>
	<path class="st27" d="M515.7,262l10-4.5L515.7,262z"/>
	<g class="st0">
		<defs>
			<rect id="SVGID_15_" x="5.9" y="2.8" width="560.2" height="362.8"/>
		</defs>
		<clipPath id="SVGID_16_">
			<use xlink:href="#SVGID_15_"  style="overflow:visible;"/>
		</clipPath>
		<path class="st28" d="M515.7,262.8c-0.3,0-0.6-0.2-0.7-0.5c-0.2-0.4,0-0.9,0.4-1l10-4.5c0.4-0.2,0.9,0,1,0.4c0.2,0.4,0,0.9-0.4,1
			l-10,4.5C515.9,262.8,515.8,262.8,515.7,262.8"/>
		<path class="st28" d="M515.2,256c-0.2,0-0.4-0.1-0.5-0.2c-0.3-0.3-0.4-0.8-0.1-1.1l2.2-2.7c0.3-0.3,0.7-0.4,1.1-0.1l1.8,1.2
			c0.4,0.2,0.4,0.7,0.2,1.1c-0.3,0.4-0.7,0.4-1.1,0.2l-1.2-0.8l-1.8,2.1C515.7,255.9,515.5,256,515.2,256"/>
		<path class="st28" d="M517.4,261.9c-0.4,0-0.8-0.4-0.8-0.8v-8.6c0-0.4,0.4-0.8,0.8-0.8c0.4,0,0.8,0.4,0.8,0.8v8.6
			C518.2,261.5,517.9,261.9,517.4,261.9"/>
		<path class="st28" d="M521.2,253.4c-0.2,0-0.4-0.1-0.5-0.2c-0.3-0.3-0.4-0.8-0.1-1.1l2.2-2.7c0.3-0.3,0.7-0.4,1.1-0.1l1.8,1.2
			c0.4,0.2,0.4,0.7,0.2,1.1c-0.2,0.4-0.7,0.4-1.1,0.2l-1.2-0.8l-1.8,2.1C521.7,253.3,521.5,253.4,521.2,253.4"/>
		<path class="st28" d="M523.4,259.3c-0.4,0-0.8-0.4-0.8-0.8v-8.6c0-0.4,0.4-0.8,0.8-0.8c0.4,0,0.8,0.4,0.8,0.8v8.6
			C524.2,258.9,523.9,259.3,523.4,259.3"/>
		<path class="st29" d="M501.4,230l-7.6-2.8L493,227c0,0.1,0,0.2,0,0.3v12.8c0,0.4,0.2,0.7,0.6,0.8l7.4,2.8c0.1,0,0.2,0.1,0.3,0.1
			c0.2,0,0.4-0.1,0.5-0.2c0.2-0.2,0.4-0.4,0.4-0.7v-12.6L501.4,230z"/>
		<g class="st30">
			<g>
				<defs>
					<rect id="SVGID_17_" x="292.9" y="250.2" width="126.9" height="116.3"/>
				</defs>
				<clipPath id="SVGID_18_">
					<use xlink:href="#SVGID_17_"  style="overflow:visible;"/>
				</clipPath>
				<path class="st31" d="M353.1,257.2c15.1-0.1,26.7,5.1,37.1,13.4c5.7,4.6,10.9,9.6,14.7,15.9c3.3,5.4,5.3,11.3,5.8,17.7
					c0.8,9.3-1.5,18-5.3,26.3c-4.2,9.1-9.4,17.5-16.9,24.4c-7.3,6.7-15.8,10.4-25.8,10.7c-8.9,0.2-17.2-2.1-25.3-5.7
					c-6.9-3-13.3-6.7-19-11.6c-9.4-8-15.2-18-16.2-30.5c-1-13.7,1.8-26.6,8.9-38.4c5.2-8.6,12.7-14.4,21.9-18.1
					C339.8,258.7,347,257.1,353.1,257.2"/>
			</g>
		</g>
		<path class="st32" d="M391,293.1v-2.5h5v-1.9h-5v-2.3h5.7v-2h-8.2v10.8h8.4v-2H391z M382.4,295.3c1.9,0,3.4-0.7,4.5-1.9l-1.6-1.5
			c-0.7,0.8-1.6,1.3-2.7,1.3c-2,0-3.5-1.4-3.5-3.5s1.4-3.5,3.5-3.5c1.1,0,2,0.4,2.7,1.3l1.6-1.5c-1-1.2-2.6-1.9-4.4-1.9
			c-3.4,0-5.9,2.3-5.9,5.6C376.5,293,379,295.3,382.4,295.3 M372.2,284.3v6.6l-5.4-6.6h-2.1v10.8h2.5v-6.6l5.4,6.6h2.1v-10.8H372.2z
			 M355.8,290.9l1.7-4.1l1.7,4.1H355.8z M361,295.1h2.6l-4.8-10.8h-2.5l-4.8,10.8h2.6l1-2.3h5L361,295.1z M346.2,295.1h2.5v-8.8h3.5
			v-2h-9.4v2h3.5V295.1z M337.8,295.3c3.1,0,4.6-1.5,4.6-3.3c0-4-6.3-2.6-6.3-4.6c0-0.7,0.6-1.2,2.1-1.2c1,0,2,0.3,3,0.9l0.8-1.9
			c-1-0.6-2.4-1-3.8-1c-3.1,0-4.6,1.5-4.6,3.4c0,4,6.3,2.6,6.3,4.6c0,0.7-0.6,1.2-2.1,1.2c-1.3,0-2.7-0.5-3.6-1.1l-0.8,1.9
			C334.3,294.8,336.1,295.3,337.8,295.3 M329.2,295.1h2.5v-10.8h-2.5V295.1z M318.9,293.1v-6.7h2.3c2.1,0,3.6,1.3,3.6,3.4
			s-1.4,3.4-3.6,3.4H318.9z M316.4,295.1h4.9c3.5,0,6-2.1,6-5.4s-2.4-5.4-6-5.4h-4.9V295.1z"/>
		<path class="st33" d="M336.2,321.8c-0.9,0-1.6,0.3-2,0.9c-0.4-0.6-1-0.9-1.8-0.9c-0.7,0-1.4,0.3-1.8,0.7v-0.7h-1.2v5.4h1.3v-2.7
			c0-1.1,0.6-1.6,1.4-1.6c0.8,0,1.2,0.5,1.2,1.4v2.9h1.3v-2.7c0-1.1,0.6-1.6,1.4-1.6c0.8,0,1.2,0.5,1.2,1.4v2.9h1.3v-3.1
			C338.4,322.5,337.5,321.8,336.2,321.8 M327.1,327.2h1.5l-2.5-3.1l2.3-2.3h-1.5l-2.6,2.4v-4.5H323v7.5h1.3v-1.4l0.9-0.9
			L327.1,327.2z M316.3,320.1v2.3h1.2v-1.2h2.8l-2.7,6h1.4l2.8-6.2v-0.9H316.3z M312.6,326c-0.2,0.2-0.4,0.2-0.7,0.2
			c-0.5,0-0.7-0.3-0.7-0.8v-2.6h1.4v-1h-1.4v-1.2h-1.3v1.2H309v1h0.9v2.6c0,1.2,0.7,1.8,1.9,1.8c0.5,0,0.9-0.1,1.2-0.4L312.6,326z
			 M305.8,322.8c0.8,0,1.4,0.5,1.5,1.3h-3.1C304.4,323.3,305,322.8,305.8,322.8 M308.5,324.6c0-1.7-1.2-2.8-2.7-2.8
			c-1.6,0-2.8,1.2-2.8,2.8c0,1.6,1.2,2.8,3,2.8c0.9,0,1.7-0.3,2.2-0.9l-0.7-0.8c-0.4,0.4-0.9,0.6-1.5,0.6c-0.9,0-1.6-0.5-1.8-1.3
			h4.2C308.5,324.8,308.5,324.7,308.5,324.6 M296.6,322.9h-0.7l0.2-1.6h3v-1.1h-4.2l-0.4,3.9h1.7c1.5,0,1.9,0.4,1.9,1.1
			c0,0.7-0.6,1.1-1.5,1.1c-0.8,0-1.6-0.3-2.1-0.7l-0.6,1c0.6,0.5,1.7,0.8,2.7,0.8c1.9,0,2.8-1,2.8-2.3
			C299.5,323.8,298.7,322.9,296.6,322.9 M292.7,325.6c-0.5,0-0.8,0.3-0.8,0.8c0,0.4,0.2,0.6,0.5,0.7l-0.4,1.5h0.8l0.5-1.4
			c0.2-0.5,0.2-0.6,0.2-0.9C293.5,326,293.2,325.6,292.7,325.6 M289,323.1l1.7-2v-0.9h-4.8v1.1h3.2l-1.6,1.9v0.9h0.6
			c1.1,0,1.5,0.4,1.5,1.1c0,0.7-0.6,1.1-1.5,1.1c-0.8,0-1.6-0.3-2.1-0.7l-0.6,1c0.7,0.5,1.7,0.8,2.7,0.8c1.9,0,2.8-1,2.8-2.2
			C291,324,290.3,323.2,289,323.1"/>
		<path class="st33" d="M323.2,310.6c0.8,0,1.4,0.5,1.5,1.3h-3.1C321.8,311.2,322.4,310.6,323.2,310.6 M326,312.4
			c0-1.7-1.2-2.8-2.7-2.8c-1.6,0-2.8,1.2-2.8,2.8c0,1.6,1.2,2.8,3,2.8c0.9,0,1.7-0.3,2.2-0.9l-0.7-0.8c-0.4,0.4-0.9,0.6-1.5,0.6
			c-0.9,0-1.6-0.5-1.8-1.3h4.2C326,312.7,326,312.5,326,312.4 M318,310.5v-0.8h-1.2v5.4h1.3v-2.6c0-1.1,0.6-1.7,1.6-1.7
			c0.1,0,0.2,0,0.3,0v-1.2C319,309.6,318.3,309.9,318,310.5 M315.3,313.9c-0.2,0.2-0.4,0.2-0.7,0.2c-0.5,0-0.7-0.3-0.7-0.8v-2.6h1.4
			v-1h-1.4v-1.2h-1.3v1.2h-0.9v1h0.9v2.6c0,1.2,0.7,1.8,1.9,1.8c0.5,0,0.9-0.1,1.2-0.4L315.3,313.9z M308.6,309.6
			c-0.8,0-1.4,0.3-1.9,0.8v-0.7h-1.2v5.4h1.3v-2.7c0-1.1,0.6-1.6,1.5-1.6c0.8,0,1.3,0.5,1.3,1.4v2.9h1.3V312
			C310.8,310.4,309.9,309.6,308.6,309.6 M301.6,310.6c0.8,0,1.4,0.5,1.5,1.3H300C300.2,311.2,300.7,310.6,301.6,310.6 M304.3,312.4
			c0-1.7-1.2-2.8-2.7-2.8c-1.6,0-2.8,1.2-2.8,2.8c0,1.6,1.2,2.8,3,2.8c0.9,0,1.7-0.3,2.2-0.9l-0.7-0.8c-0.4,0.4-0.9,0.6-1.5,0.6
			c-0.9,0-1.6-0.5-1.8-1.3h4.2C304.3,312.7,304.3,312.5,304.3,312.4"/>
	</g>
	<polygon class="st5" points="294.4,350.3 291.5,350.3 291.5,347.4 289.7,347.4 289.7,350.3 286.8,350.3 286.8,352 289.7,352 
		289.7,354.9 291.5,354.9 291.5,352 294.4,352 	"/>
	<polygon class="st5" points="358.4,350.3 355.5,350.3 355.5,347.4 353.7,347.4 353.7,350.3 350.7,350.3 350.7,352 353.7,352 
		353.7,354.9 355.5,354.9 355.5,352 358.4,352 	"/>
	<g class="st0">
		<defs>
			<rect id="SVGID_19_" x="5.9" y="2.8" width="560.2" height="362.8"/>
		</defs>
		<clipPath id="SVGID_20_">
			<use xlink:href="#SVGID_19_"  style="overflow:visible;"/>
		</clipPath>
		<path class="st34" d="M415.2,320.7c-0.9,0-1.6,0.3-2,0.9c-0.4-0.6-1-0.9-1.8-0.9c-0.7,0-1.4,0.3-1.8,0.7v-0.7h-1.2v5.4h1.3v-2.7
			c0-1.1,0.6-1.6,1.4-1.6c0.8,0,1.2,0.5,1.2,1.4v2.9h1.3v-2.7c0-1.1,0.6-1.6,1.4-1.6c0.8,0,1.2,0.5,1.2,1.4v2.9h1.3v-3.1
			C417.4,321.4,416.5,320.7,415.2,320.7 M406,326.2h1.5l-2.5-3.1l2.3-2.3h-1.5l-2.6,2.4v-4.5H402v7.5h1.3v-1.4l0.9-0.9L406,326.2z
			 M397.9,321.8h-0.7l0.2-1.6h3v-1.1h-4.2l-0.4,3.9h1.7c1.5,0,1.9,0.4,1.9,1.1c0,0.7-0.6,1.1-1.5,1.1c-0.8,0-1.6-0.3-2.1-0.7l-0.6,1
			c0.6,0.5,1.7,0.8,2.7,0.8c1.9,0,2.8-1,2.8-2.3C400.8,322.7,400,321.8,397.9,321.8 M394,324.6c-0.5,0-0.8,0.3-0.8,0.8
			c0,0.4,0.2,0.6,0.5,0.8l-0.4,1.5h0.8l0.5-1.4c0.2-0.5,0.2-0.6,0.2-0.9C394.8,324.9,394.5,324.6,394,324.6 M389.5,325.1
			c-1,0-1.6-0.8-1.6-2.5c0-1.7,0.7-2.5,1.6-2.5c1,0,1.6,0.8,1.6,2.5C391.1,324.3,390.4,325.1,389.5,325.1 M389.5,326.3
			c1.7,0,3-1.3,3-3.6c0-2.3-1.3-3.6-3-3.6c-1.7,0-3,1.3-3,3.6C386.5,325,387.8,326.3,389.5,326.3 M382.3,319.1v1.1h1.5v6h1.3v-7.1
			H382.3z M378.8,325c-0.2,0.2-0.4,0.2-0.7,0.2c-0.5,0-0.8-0.3-0.8-0.8v-2.6h1.4v-1h-1.4v-1.2h-1.3v1.2h-0.9v1h0.9v2.6
			c0,1.2,0.7,1.8,1.9,1.8c0.5,0,0.9-0.1,1.2-0.4L378.8,325z M372,321.7c0.8,0,1.4,0.5,1.5,1.3h-3.1
			C370.6,322.2,371.2,321.7,372,321.7 M374.7,323.5c0-1.7-1.2-2.8-2.7-2.8c-1.6,0-2.8,1.2-2.8,2.8s1.2,2.8,3,2.8
			c0.9,0,1.7-0.3,2.2-0.9l-0.7-0.8c-0.4,0.4-0.9,0.6-1.5,0.6c-0.9,0-1.6-0.5-1.8-1.3h4.2C374.7,323.8,374.7,323.6,374.7,323.5
			 M360.1,319.1v2.3h1.2v-1.2h2.8l-2.7,6h1.4l2.8-6.2v-0.9H360.1z"/>
		<path class="st34" d="M399.9,309.6c0.8,0,1.4,0.5,1.5,1.3h-3.1C398.5,310.1,399.1,309.6,399.9,309.6 M402.6,311.3
			c0-1.7-1.2-2.8-2.7-2.8c-1.6,0-2.8,1.2-2.8,2.8c0,1.6,1.2,2.8,3,2.8c0.9,0,1.7-0.3,2.2-0.9l-0.7-0.8c-0.4,0.4-0.9,0.6-1.5,0.6
			c-0.9,0-1.6-0.5-1.8-1.3h4.2C402.6,311.6,402.6,311.4,402.6,311.3 M394.6,309.4v-0.8h-1.2v5.4h1.3v-2.6c0-1.1,0.6-1.7,1.6-1.7
			c0.1,0,0.2,0,0.3,0v-1.2C395.6,308.6,395,308.8,394.6,309.4 M392,312.8c-0.2,0.2-0.4,0.2-0.7,0.2c-0.5,0-0.7-0.3-0.7-0.8v-2.6h1.4
			v-1h-1.4v-1.2h-1.3v1.2h-0.9v1h0.9v2.6c0,1.2,0.7,1.8,1.9,1.8c0.5,0,0.9-0.1,1.2-0.4L392,312.8z M385.2,308.6
			c-0.8,0-1.4,0.3-1.9,0.8v-0.7h-1.2v5.4h1.3v-2.7c0-1.1,0.6-1.6,1.5-1.6c0.8,0,1.3,0.5,1.3,1.4v2.9h1.3v-3.1
			C387.5,309.3,386.5,308.6,385.2,308.6 M378.2,309.6c0.8,0,1.4,0.5,1.5,1.3h-3.1C376.8,310.1,377.4,309.6,378.2,309.6 M380.9,311.3
			c0-1.7-1.2-2.8-2.7-2.8c-1.6,0-2.8,1.2-2.8,2.8c0,1.6,1.2,2.8,3,2.8c0.9,0,1.7-0.3,2.2-0.9l-0.7-0.8c-0.4,0.4-0.9,0.6-1.5,0.6
			c-0.9,0-1.6-0.5-1.8-1.3h4.2C380.9,311.6,380.9,311.4,380.9,311.3"/>
		<path class="st35" d="M314,337.4c2.4,0.8,4.1,3.7,5.5,6.9c1.4,3.3,2.6,6.9,1.6,9.9c-1,3-4.2,5.3-7.3,5.7c-3.1,0.3-6.2-1.3-9-2.9
			c-2.8-1.6-5.3-3.2-6.2-5.4c-0.9-2.2-0.1-5.1,1.3-7.3c1.4-2.2,3.5-3.7,6-5.1C308.6,337.9,311.7,336.6,314,337.4"/>
		<path class="st36" d="M316.2,339.6l4.5,12.5 M321.7,344.7c-0.7-2,0.3-4.2,2.3-4.9l-1-2.6l-26.6,9.7l1,2.6c2-0.7,4.2,0.3,4.9,2.3
			c0.7,2-0.3,4.2-2.3,4.9l1,2.6l26.6-9.7l-1-2.6C324.6,347.7,322.4,346.7,321.7,344.7z"/>
		<path class="st36" d="M311.9,352.2c1.9-0.7,2.8-2.8,2.2-4.6c-0.7-1.9-2.8-2.9-4.6-2.2c-1.9,0.7-2.9,2.8-2.2,4.6
			C308,351.9,310,352.9,311.9,352.2z"/>
		<path class="st35" d="M377.5,337.4c2.4,0.8,4.1,3.7,5.5,6.9c1.4,3.3,2.6,6.9,1.6,9.9c-1,3-4.2,5.3-7.3,5.7c-3.1,0.3-6.2-1.3-9-2.9
			c-2.8-1.6-5.3-3.2-6.2-5.4c-0.9-2.2-0.1-5.1,1.3-7.3c1.4-2.2,3.5-3.7,6-5.1C372.1,337.9,375.2,336.6,377.5,337.4"/>
		<path class="st36" d="M379.7,339.6l4.5,12.5 M385.2,344.7c-0.7-2,0.3-4.2,2.3-4.9l-1-2.6l-26.6,9.7l1,2.6c2-0.7,4.2,0.3,4.9,2.3
			c0.7,2-0.3,4.2-2.3,4.9l1,2.6l26.6-9.7l-1-2.6C388.1,347.7,385.9,346.7,385.2,344.7z"/>
		<path class="st36" d="M375.4,352.2c1.9-0.7,2.8-2.8,2.2-4.6c-0.7-1.9-2.8-2.9-4.6-2.2c-1.9,0.7-2.9,2.8-2.2,4.6
			C371.5,351.9,373.5,352.9,375.4,352.2z"/>
		<path class="st35" d="M416.1,337.4c2.4,0.8,4.1,3.7,5.5,6.9c1.4,3.3,2.6,6.9,1.6,9.9c-1,3-4.2,5.3-7.3,5.7c-3.1,0.3-6.2-1.3-9-2.9
			c-2.8-1.6-5.3-3.2-6.2-5.4c-0.9-2.2-0.1-5.1,1.3-7.3c1.4-2.2,3.5-3.7,6-5.1C410.7,337.9,413.7,336.6,416.1,337.4"/>
		<path class="st36" d="M418.3,339.6l4.5,12.5 M423.7,344.7c-0.7-2,0.3-4.2,2.3-4.9l-1-2.6l-26.6,9.7l1,2.6c2-0.7,4.2,0.3,4.9,2.3
			c0.7,2-0.3,4.2-2.3,4.9l1,2.6l26.6-9.7l-1-2.6C426.6,347.7,424.4,346.7,423.7,344.7z"/>
		<path class="st36" d="M414,352.2c1.9-0.7,2.8-2.8,2.2-4.6c-0.7-1.9-2.8-2.9-4.6-2.2c-1.9,0.7-2.9,2.8-2.2,4.6
			C410,351.9,412.1,352.9,414,352.2z"/>
		<path class="st37" d="M342.5,233.1c-0.3-0.2-0.7-0.2-1-0.1l-13,6.4c-0.4,0.2-0.6,0.5-0.6,0.9V272c0,0.4,0.2,0.7,0.5,0.9
			c0.2,0.1,0.4,0.2,0.6,0.2c0.2,0,0.3,0,0.5-0.1l13-6.4c0.4-0.2,0.6-0.5,0.6-0.9V234C343,233.6,342.8,233.3,342.5,233.1"/>
		<path class="st37" d="M368.6,233.1c-0.3-0.2-0.7-0.2-1-0.1l-13.1,6.4c-0.4,0.2-0.6,0.5-0.6,0.9V272c0,0.4,0.2,0.7,0.5,0.9
			c0.2,0.1,0.4,0.2,0.6,0.2c0.2,0,0.3,0,0.5-0.1l13-6.4c0.4-0.2,0.6-0.5,0.6-0.9V234C369.1,233.6,368.9,233.3,368.6,233.1"/>
		<path class="st35" d="M367.1,227.4c0-6.6-5.4-12-12-12c-6.6,0-12,5.4-12,12c0,0-0.3,12.1,12,24.4
			C367.4,239.5,367.1,227.4,367.1,227.4"/>
		<path class="st38" d="M381.6,239.4l-13-6.4c-0.1-0.1-0.3-0.1-0.5-0.1v33.9l12.6,6.1c0.1,0.1,0.3,0.1,0.5,0.1
			c0.2,0,0.4-0.1,0.6-0.2c0.3-0.2,0.5-0.5,0.5-0.9v-31.7C382.2,239.9,381.9,239.5,381.6,239.4"/>
		<path class="st38" d="M355,239.1l-12.6-6.1c-0.1,0-0.1-0.1-0.2-0.1v33.8l12.3,6.2c0.1,0.1,0.3,0.1,0.5,0.1V239.1z"/>
		<path class="st39" d="M355.2,215.4c-0.1,0-0.1,0-0.2,0c-6.6,0-12,5.4-12,12c0,0-0.3,12.1,12,24.3c0.1-0.1,0.1-0.1,0.2-0.2V215.4z"
			/>
		<path class="st40" d="M360,227.4c0,2.7-2.2,4.9-4.9,4.9c-2.7,0-4.9-2.2-4.9-4.9c0-2.7,2.2-4.9,4.9-4.9
			C357.8,222.5,360,224.7,360,227.4"/>
	</g>
</g>
</svg>
