<?xml version="1.0" encoding="utf-8"?>
<!-- Generator: Adobe Illustrator 25.2.3, SVG Export Plug-In . SVG Version: 6.00 Build 0)  -->
<svg version="1.1" id="Calque_1" xmlns="http://www.w3.org/2000/svg" xmlns:xlink="http://www.w3.org/1999/xlink" x="0px" y="0px"
	 viewBox="0 0 149 111" style="enable-background:new 0 0 149 111;" xml:space="preserve">
<style type="text/css">
	.st0{clip-path:url(#SVGID_2_);fill:#FFCC00;}
	.st1{clip-path:url(#SVGID_2_);fill:none;stroke:#131F6D;stroke-width:2.288;stroke-miterlimit:10;}
</style>
<g>
	<defs>
		<rect id="SVGID_1_" x="7" y="7.6" width="138" height="100.4"/>
	</defs>
	<clipPath id="SVGID_2_">
		<use xlink:href="#SVGID_1_"  style="overflow:visible;"/>
	</clipPath>
	<path class="st0" d="M85,10c10.3,3.5,17.8,16,24.1,30.1c6.3,14.1,11.5,29.9,7.1,42.8c-4.3,13-18.2,23.2-31.7,24.7
		c-13.5,1.5-26.8-5.7-38.9-12.7c-12.1-7-23-13.7-26.9-23.3c-3.8-9.6-0.4-22.2,5.7-31.7c6.1-9.5,15.1-16,26.1-22
		C61.5,12,74.7,6.5,85,10"/>
	<path class="st1" d="M94.4,19.8l19.7,54.1 M118.1,41.8c-3.1-8.6,1.3-18.2,9.9-21.3L123.9,9L8.5,51l4.2,11.4
		c8.6-3.1,18.2,1.3,21.3,9.9S32.6,90.6,24,93.7l4.2,11.4l115.4-42l-4.2-11.4C130.7,54.9,121.2,50.4,118.1,41.8z"/>
	<path class="st1" d="M75.8,74.2c8.2-3,12.4-12,9.4-20.2c-3-8.2-12-12.4-20.2-9.4c-8.2,3-12.4,12-9.4,20.2
		C58.6,73,67.6,77.2,75.8,74.2z"/>
</g>
</svg>
