<svg width="42" height="42" viewBox="0 0 42 42" fill="none" xmlns="http://www.w3.org/2000/svg">
<path d="M20.8333 0C9.34583 0 0 9.34583 0 20.8333C0 32.3208 9.34583 41.6667 20.8333 41.6667C32.3208 41.6667 41.6667 32.3208 41.6667 20.8333C41.6667 9.34583 32.3208 0 20.8333 0ZM20.8333 37.5C11.6438 37.5 4.16667 30.0229 4.16667 20.8333C4.16667 11.6438 11.6438 4.16667 20.8333 4.16667C30.0229 4.16667 37.5 11.6438 37.5 20.8333C37.5 30.0229 30.0229 37.5 20.8333 37.5Z" fill="#E60161"/>
<path d="M16.6639 24.1396L11.8743 19.3583L8.93262 22.3083L16.668 30.0271L30.6389 16.0562L27.693 13.1104L16.6639 24.1396Z" fill="#E60161"/>
</svg>
