<svg  width="87" height="72" viewBox="0 0 87 72" fill="none" xmlns="http://www.w3.org/2000/svg">
<path class="urgence_type_1" d="M57.25 14C61.1 14 64.25 10.85 64.25 7C64.25 3.15 61.1 0 57.25 0C53.4 0 50.25 3.15 50.25 7C50.25 10.85 53.4 14 57.25 14ZM20.5 36.75C10.7 36.75 3 44.45 3 54.25C3 64.05 10.7 71.75 20.5 71.75C30.3 71.75 38 64.05 38 54.25C38 44.45 30.3 36.75 20.5 36.75ZM20.5 66.5C13.85 66.5 8.25 60.9 8.25 54.25C8.25 47.6 13.85 42 20.5 42C27.15 42 32.75 47.6 32.75 54.25C32.75 60.9 27.15 66.5 20.5 66.5ZM40.8 31.5L49.2 23.1L52 25.9C56.55 30.45 62.5 33.25 69.85 33.25V26.25C64.6 26.25 60.4 24.15 57.25 21L50.6 14.35C48.85 12.95 47.1 12.25 45 12.25C42.9 12.25 41.15 12.95 40.1 14.35L30.3 24.15C28.9 25.55 28.2 27.3 28.2 29.05C28.2 31.15 28.9 32.9 30.3 33.95L41.5 43.75V61.25H48.5V39.55L40.8 31.5ZM69.5 36.75C59.7 36.75 52 44.45 52 54.25C52 64.05 59.7 71.75 69.5 71.75C79.3 71.75 87 64.05 87 54.25C87 44.45 79.3 36.75 69.5 36.75ZM69.5 66.5C62.85 66.5 57.25 60.9 57.25 54.25C57.25 47.6 62.85 42 69.5 42C76.15 42 81.75 47.6 81.75 54.25C81.75 60.9 76.15 66.5 69.5 66.5Z" fill="white"/>
<path class="urgence_type_1_flame" d="M2.98122e-08 22.5L22.5 20.3349L22.5 24.6651L2.98122e-08 22.5Z" fill="white"/>
</svg>
